<mxfile host="app.diagrams.net" modified="2022-09-27T04:00:41.736Z" agent="5.0 (Macintosh; Intel Mac OS X 10_14_6) AppleWebKit/537.36 (KHTML, like Gecko) Chrome/105.0.0.0 Safari/537.36" etag="kluIcsePWVwZ55JnLlCO" version="20.3.6" type="github">
  <diagram id="aS1iUR8-DeaDot_ZUzFj" name="第 1 页">
    <mxGraphModel dx="2186" dy="770" grid="1" gridSize="10" guides="1" tooltips="1" connect="1" arrows="1" fold="1" page="1" pageScale="1" pageWidth="827" pageHeight="1169" math="0" shadow="0">
      <root>
        <mxCell id="0" />
        <mxCell id="1" parent="0" />
        <mxCell id="bgPXSvZXS7v1T61vYOxo-1" value="" style="rounded=0;whiteSpace=wrap;html=1;" vertex="1" parent="1">
          <mxGeometry x="-40" y="190" width="510" height="460" as="geometry" />
        </mxCell>
        <mxCell id="bgPXSvZXS7v1T61vYOxo-18" value="" style="edgeStyle=orthogonalEdgeStyle;rounded=0;orthogonalLoop=1;jettySize=auto;html=1;" edge="1" parent="1" source="bgPXSvZXS7v1T61vYOxo-2" target="bgPXSvZXS7v1T61vYOxo-17">
          <mxGeometry relative="1" as="geometry" />
        </mxCell>
        <mxCell id="bgPXSvZXS7v1T61vYOxo-2" value="流量校验" style="rounded=0;whiteSpace=wrap;html=1;" vertex="1" parent="1">
          <mxGeometry x="62" y="220" width="170" height="40" as="geometry" />
        </mxCell>
        <mxCell id="bgPXSvZXS7v1T61vYOxo-9" style="edgeStyle=orthogonalEdgeStyle;rounded=0;orthogonalLoop=1;jettySize=auto;html=1;entryX=0;entryY=0.5;entryDx=0;entryDy=0;" edge="1" parent="1" source="bgPXSvZXS7v1T61vYOxo-4" target="bgPXSvZXS7v1T61vYOxo-6">
          <mxGeometry relative="1" as="geometry" />
        </mxCell>
        <mxCell id="bgPXSvZXS7v1T61vYOxo-10" style="edgeStyle=orthogonalEdgeStyle;rounded=0;orthogonalLoop=1;jettySize=auto;html=1;entryX=0.5;entryY=0;entryDx=0;entryDy=0;entryPerimeter=0;" edge="1" parent="1" source="bgPXSvZXS7v1T61vYOxo-4" target="bgPXSvZXS7v1T61vYOxo-7">
          <mxGeometry relative="1" as="geometry" />
        </mxCell>
        <mxCell id="bgPXSvZXS7v1T61vYOxo-4" value="缓存调度任务" style="rounded=0;whiteSpace=wrap;html=1;" vertex="1" parent="1">
          <mxGeometry x="480" y="660" width="120" height="60" as="geometry" />
        </mxCell>
        <mxCell id="bgPXSvZXS7v1T61vYOxo-5" value="展示服务C端流量分组" style="text;html=1;strokeColor=none;fillColor=none;align=center;verticalAlign=middle;whiteSpace=wrap;rounded=0;" vertex="1" parent="1">
          <mxGeometry x="-40.5" y="190" width="120" height="20" as="geometry" />
        </mxCell>
        <mxCell id="bgPXSvZXS7v1T61vYOxo-6" value="" style="rounded=0;whiteSpace=wrap;html=1;" vertex="1" parent="1">
          <mxGeometry x="660" y="650" width="150" height="80" as="geometry" />
        </mxCell>
        <mxCell id="bgPXSvZXS7v1T61vYOxo-7" value="接口响应缓存" style="shape=cylinder3;whiteSpace=wrap;html=1;boundedLbl=1;backgroundOutline=1;size=15;" vertex="1" parent="1">
          <mxGeometry x="320" y="745" width="60" height="80" as="geometry" />
        </mxCell>
        <mxCell id="bgPXSvZXS7v1T61vYOxo-8" value="展示服务调度任务分组" style="text;html=1;strokeColor=none;fillColor=none;align=center;verticalAlign=middle;whiteSpace=wrap;rounded=0;" vertex="1" parent="1">
          <mxGeometry x="665" y="685" width="140" height="10" as="geometry" />
        </mxCell>
        <mxCell id="bgPXSvZXS7v1T61vYOxo-11" value="按场景分页缓存接口结果，用于本地缓存兜底内容" style="text;html=1;strokeColor=none;fillColor=none;align=center;verticalAlign=middle;whiteSpace=wrap;rounded=0;" vertex="1" parent="1">
          <mxGeometry x="351.5" y="695" width="120" height="50" as="geometry" />
        </mxCell>
        <mxCell id="bgPXSvZXS7v1T61vYOxo-12" value="" style="endArrow=classic;html=1;rounded=0;" edge="1" parent="1">
          <mxGeometry width="50" height="50" relative="1" as="geometry">
            <mxPoint x="147" y="140" as="sourcePoint" />
            <mxPoint x="147" y="190" as="targetPoint" />
          </mxGeometry>
        </mxCell>
        <mxCell id="bgPXSvZXS7v1T61vYOxo-13" value="用&lt;br&gt;户&lt;br&gt;请&lt;br&gt;求" style="rounded=0;whiteSpace=wrap;html=1;" vertex="1" parent="1">
          <mxGeometry x="62" y="30" width="30" height="100" as="geometry" />
        </mxCell>
        <mxCell id="bgPXSvZXS7v1T61vYOxo-14" value="用&lt;br&gt;户&lt;br&gt;请&lt;br&gt;求" style="rounded=0;whiteSpace=wrap;html=1;" vertex="1" parent="1">
          <mxGeometry x="132" y="30" width="30" height="100" as="geometry" />
        </mxCell>
        <mxCell id="bgPXSvZXS7v1T61vYOxo-15" value="用&lt;br&gt;户&lt;br&gt;请&lt;br&gt;求" style="rounded=0;whiteSpace=wrap;html=1;" vertex="1" parent="1">
          <mxGeometry x="202" y="30" width="30" height="100" as="geometry" />
        </mxCell>
        <mxCell id="bgPXSvZXS7v1T61vYOxo-21" value="" style="edgeStyle=orthogonalEdgeStyle;rounded=0;orthogonalLoop=1;jettySize=auto;html=1;" edge="1" parent="1" source="bgPXSvZXS7v1T61vYOxo-17" target="bgPXSvZXS7v1T61vYOxo-20">
          <mxGeometry relative="1" as="geometry" />
        </mxCell>
        <mxCell id="bgPXSvZXS7v1T61vYOxo-77" style="edgeStyle=orthogonalEdgeStyle;rounded=0;orthogonalLoop=1;jettySize=auto;html=1;entryX=0;entryY=0.25;entryDx=0;entryDy=0;" edge="1" parent="1" source="bgPXSvZXS7v1T61vYOxo-17" target="bgPXSvZXS7v1T61vYOxo-72">
          <mxGeometry relative="1" as="geometry" />
        </mxCell>
        <mxCell id="bgPXSvZXS7v1T61vYOxo-17" value="当前场景&lt;br&gt;qps是否达到本地缓存阈值" style="rhombus;whiteSpace=wrap;html=1;" vertex="1" parent="1">
          <mxGeometry x="79.5" y="290" width="135" height="90" as="geometry" />
        </mxCell>
        <mxCell id="bgPXSvZXS7v1T61vYOxo-37" style="edgeStyle=orthogonalEdgeStyle;rounded=0;orthogonalLoop=1;jettySize=auto;html=1;fillColor=#f8cecc;strokeColor=#b85450;exitX=1;exitY=0.5;exitDx=0;exitDy=0;" edge="1" parent="1" source="bgPXSvZXS7v1T61vYOxo-20" target="bgPXSvZXS7v1T61vYOxo-43">
          <mxGeometry relative="1" as="geometry">
            <mxPoint x="270" y="170" as="targetPoint" />
            <Array as="points">
              <mxPoint x="515" y="480" />
            </Array>
          </mxGeometry>
        </mxCell>
        <mxCell id="bgPXSvZXS7v1T61vYOxo-50" style="edgeStyle=orthogonalEdgeStyle;rounded=0;orthogonalLoop=1;jettySize=auto;html=1;entryX=0.5;entryY=0;entryDx=0;entryDy=0;" edge="1" parent="1" source="bgPXSvZXS7v1T61vYOxo-20" target="bgPXSvZXS7v1T61vYOxo-45">
          <mxGeometry relative="1" as="geometry" />
        </mxCell>
        <mxCell id="bgPXSvZXS7v1T61vYOxo-20" value="当前场景qps&lt;br&gt;是否达到cdn缓存阈值" style="rhombus;whiteSpace=wrap;html=1;" vertex="1" parent="1">
          <mxGeometry x="74.5" y="430" width="145" height="100" as="geometry" />
        </mxCell>
        <mxCell id="bgPXSvZXS7v1T61vYOxo-22" value="否" style="text;html=1;strokeColor=none;fillColor=none;align=center;verticalAlign=middle;whiteSpace=wrap;rounded=0;" vertex="1" parent="1">
          <mxGeometry x="140" y="395" width="32" height="20" as="geometry" />
        </mxCell>
        <mxCell id="bgPXSvZXS7v1T61vYOxo-24" value="" style="shape=note;whiteSpace=wrap;html=1;backgroundOutline=1;darkOpacity=0.05;" vertex="1" parent="1">
          <mxGeometry x="-13" y="370" width="50" height="60" as="geometry" />
        </mxCell>
        <mxCell id="bgPXSvZXS7v1T61vYOxo-67" style="edgeStyle=orthogonalEdgeStyle;rounded=0;orthogonalLoop=1;jettySize=auto;html=1;" edge="1" parent="1" source="bgPXSvZXS7v1T61vYOxo-29" target="bgPXSvZXS7v1T61vYOxo-32">
          <mxGeometry relative="1" as="geometry" />
        </mxCell>
        <mxCell id="bgPXSvZXS7v1T61vYOxo-29" value="ducc&lt;br&gt;（请求缓存调度任务配置）" style="rounded=0;whiteSpace=wrap;html=1;" vertex="1" parent="1">
          <mxGeometry x="-263" y="260" width="120" height="60" as="geometry" />
        </mxCell>
        <mxCell id="bgPXSvZXS7v1T61vYOxo-33" style="edgeStyle=orthogonalEdgeStyle;rounded=0;orthogonalLoop=1;jettySize=auto;html=1;" edge="1" parent="1" source="bgPXSvZXS7v1T61vYOxo-32">
          <mxGeometry relative="1" as="geometry">
            <mxPoint x="22" y="370" as="targetPoint" />
          </mxGeometry>
        </mxCell>
        <mxCell id="bgPXSvZXS7v1T61vYOxo-66" style="edgeStyle=orthogonalEdgeStyle;rounded=0;orthogonalLoop=1;jettySize=auto;html=1;exitX=0;exitY=1;exitDx=0;exitDy=0;entryX=0;entryY=0.5;entryDx=0;entryDy=0;" edge="1" parent="1" source="bgPXSvZXS7v1T61vYOxo-32" target="bgPXSvZXS7v1T61vYOxo-38">
          <mxGeometry relative="1" as="geometry">
            <Array as="points">
              <mxPoint x="-80" y="311" />
              <mxPoint x="-80" y="700" />
            </Array>
          </mxGeometry>
        </mxCell>
        <mxCell id="bgPXSvZXS7v1T61vYOxo-32" value="&lt;meta charset=&quot;utf-8&quot;&gt;&lt;span style=&quot;color: rgb(0, 0, 0); font-family: Helvetica; font-size: 12px; font-style: normal; font-variant-ligatures: normal; font-variant-caps: normal; font-weight: 400; letter-spacing: normal; orphans: 2; text-align: center; text-indent: 0px; text-transform: none; widows: 2; word-spacing: 0px; -webkit-text-stroke-width: 0px; background-color: rgb(248, 249, 250); text-decoration-thickness: initial; text-decoration-style: initial; text-decoration-color: initial; float: none; display: inline !important;&quot;&gt;定时调用引擎缓存&lt;/span&gt;" style="ellipse;whiteSpace=wrap;html=1;aspect=fixed;" vertex="1" parent="1">
          <mxGeometry x="-8" y="260" width="60" height="60" as="geometry" />
        </mxCell>
        <mxCell id="bgPXSvZXS7v1T61vYOxo-34" value="" style="shape=note;whiteSpace=wrap;html=1;backgroundOutline=1;darkOpacity=0.05;" vertex="1" parent="1">
          <mxGeometry x="-3" y="380" width="50" height="60" as="geometry" />
        </mxCell>
        <mxCell id="bgPXSvZXS7v1T61vYOxo-35" value="" style="shape=note;whiteSpace=wrap;html=1;backgroundOutline=1;darkOpacity=0.05;" vertex="1" parent="1">
          <mxGeometry x="7" y="390" width="50" height="60" as="geometry" />
        </mxCell>
        <mxCell id="bgPXSvZXS7v1T61vYOxo-38" value="聚量引擎" style="whiteSpace=wrap;html=1;" vertex="1" parent="1">
          <mxGeometry x="87.5" y="670" width="120" height="60" as="geometry" />
        </mxCell>
        <mxCell id="bgPXSvZXS7v1T61vYOxo-43" value="空结果" style="rounded=1;whiteSpace=wrap;html=1;fillColor=#f8cecc;strokeColor=#b85450;" vertex="1" parent="1">
          <mxGeometry x="471.5" y="140" width="86" height="30" as="geometry" />
        </mxCell>
        <mxCell id="bgPXSvZXS7v1T61vYOxo-48" style="edgeStyle=orthogonalEdgeStyle;rounded=0;orthogonalLoop=1;jettySize=auto;html=1;" edge="1" parent="1" source="bgPXSvZXS7v1T61vYOxo-45" target="bgPXSvZXS7v1T61vYOxo-35">
          <mxGeometry relative="1" as="geometry" />
        </mxCell>
        <mxCell id="bgPXSvZXS7v1T61vYOxo-51" value="" style="edgeStyle=orthogonalEdgeStyle;rounded=0;orthogonalLoop=1;jettySize=auto;html=1;" edge="1" parent="1" source="bgPXSvZXS7v1T61vYOxo-45" target="bgPXSvZXS7v1T61vYOxo-38">
          <mxGeometry relative="1" as="geometry" />
        </mxCell>
        <mxCell id="bgPXSvZXS7v1T61vYOxo-58" style="edgeStyle=orthogonalEdgeStyle;rounded=0;orthogonalLoop=1;jettySize=auto;html=1;fillColor=#d5e8d4;strokeColor=#82b366;" edge="1" parent="1" source="bgPXSvZXS7v1T61vYOxo-45" target="bgPXSvZXS7v1T61vYOxo-55">
          <mxGeometry relative="1" as="geometry" />
        </mxCell>
        <mxCell id="bgPXSvZXS7v1T61vYOxo-45" value="引擎调用处理程序" style="rounded=0;whiteSpace=wrap;html=1;" vertex="1" parent="1">
          <mxGeometry x="84.5" y="584.5" width="125" height="30" as="geometry" />
        </mxCell>
        <mxCell id="bgPXSvZXS7v1T61vYOxo-52" value="当前场景走引擎缓存结果" style="text;html=1;strokeColor=none;fillColor=none;align=center;verticalAlign=middle;whiteSpace=wrap;rounded=0;" vertex="1" parent="1">
          <mxGeometry x="-33" y="510" width="70" height="50" as="geometry" />
        </mxCell>
        <mxCell id="bgPXSvZXS7v1T61vYOxo-60" style="edgeStyle=orthogonalEdgeStyle;rounded=0;orthogonalLoop=1;jettySize=auto;html=1;exitX=0.5;exitY=0;exitDx=0;exitDy=0;fillColor=#d5e8d4;strokeColor=#82b366;entryX=0.5;entryY=1;entryDx=0;entryDy=0;" edge="1" parent="1" source="bgPXSvZXS7v1T61vYOxo-55" target="bgPXSvZXS7v1T61vYOxo-87">
          <mxGeometry relative="1" as="geometry">
            <mxPoint x="410" y="410" as="targetPoint" />
          </mxGeometry>
        </mxCell>
        <mxCell id="bgPXSvZXS7v1T61vYOxo-55" value="调用其它外部依赖" style="rounded=0;whiteSpace=wrap;html=1;" vertex="1" parent="1">
          <mxGeometry x="367" y="500" width="90" height="30" as="geometry" />
        </mxCell>
        <mxCell id="bgPXSvZXS7v1T61vYOxo-64" style="edgeStyle=orthogonalEdgeStyle;rounded=0;orthogonalLoop=1;jettySize=auto;html=1;entryX=0.5;entryY=1;entryDx=0;entryDy=0;fillColor=#d5e8d4;strokeColor=#82b366;exitX=0.5;exitY=0;exitDx=0;exitDy=0;" edge="1" parent="1" source="bgPXSvZXS7v1T61vYOxo-88" target="bgPXSvZXS7v1T61vYOxo-62">
          <mxGeometry relative="1" as="geometry">
            <mxPoint x="411.5" y="290" as="sourcePoint" />
          </mxGeometry>
        </mxCell>
        <mxCell id="bgPXSvZXS7v1T61vYOxo-62" value="正常响应结果" style="rounded=1;whiteSpace=wrap;html=1;fillColor=#d5e8d4;strokeColor=#82b366;" vertex="1" parent="1">
          <mxGeometry x="368.5" y="140" width="86" height="30" as="geometry" />
        </mxCell>
        <mxCell id="bgPXSvZXS7v1T61vYOxo-68" value="人工调度任务下发" style="text;html=1;strokeColor=none;fillColor=none;align=center;verticalAlign=middle;whiteSpace=wrap;rounded=0;" vertex="1" parent="1">
          <mxGeometry x="-120" y="260" width="60" height="30" as="geometry" />
        </mxCell>
        <mxCell id="bgPXSvZXS7v1T61vYOxo-78" style="edgeStyle=orthogonalEdgeStyle;rounded=0;orthogonalLoop=1;jettySize=auto;html=1;entryX=0;entryY=0.5;entryDx=0;entryDy=0;entryPerimeter=0;fillColor=#ffe6cc;strokeColor=#d79b00;" edge="1" parent="1" source="bgPXSvZXS7v1T61vYOxo-72" target="bgPXSvZXS7v1T61vYOxo-7">
          <mxGeometry relative="1" as="geometry" />
        </mxCell>
        <mxCell id="bgPXSvZXS7v1T61vYOxo-82" style="edgeStyle=orthogonalEdgeStyle;rounded=0;orthogonalLoop=1;jettySize=auto;html=1;entryX=0.5;entryY=1;entryDx=0;entryDy=0;fillColor=#ffe6cc;strokeColor=#d79b00;" edge="1" parent="1" source="bgPXSvZXS7v1T61vYOxo-72" target="bgPXSvZXS7v1T61vYOxo-81">
          <mxGeometry relative="1" as="geometry" />
        </mxCell>
        <mxCell id="bgPXSvZXS7v1T61vYOxo-72" value="获取接口级缓存" style="rounded=0;whiteSpace=wrap;html=1;" vertex="1" parent="1">
          <mxGeometry x="250" y="390" width="91" height="30" as="geometry" />
        </mxCell>
        <mxCell id="bgPXSvZXS7v1T61vYOxo-81" value="接口级缓存" style="rounded=1;whiteSpace=wrap;html=1;fillColor=#ffe6cc;strokeColor=#d79b00;" vertex="1" parent="1">
          <mxGeometry x="252.5" y="140" width="86" height="30" as="geometry" />
        </mxCell>
        <mxCell id="bgPXSvZXS7v1T61vYOxo-83" value="" style="endArrow=classic;html=1;rounded=0;edgeStyle=orthogonalEdgeStyle;" edge="1" parent="1">
          <mxGeometry width="50" height="50" relative="1" as="geometry">
            <mxPoint x="420" y="130" as="sourcePoint" />
            <mxPoint x="260" y="80" as="targetPoint" />
            <Array as="points">
              <mxPoint x="420" y="80" />
              <mxPoint x="270" y="80" />
            </Array>
          </mxGeometry>
        </mxCell>
        <mxCell id="bgPXSvZXS7v1T61vYOxo-84" value="是" style="text;html=1;strokeColor=none;fillColor=none;align=center;verticalAlign=middle;whiteSpace=wrap;rounded=0;" vertex="1" parent="1">
          <mxGeometry x="232" y="360" width="28" height="20" as="geometry" />
        </mxCell>
        <mxCell id="bgPXSvZXS7v1T61vYOxo-86" value="否" style="text;html=1;strokeColor=none;fillColor=none;align=center;verticalAlign=middle;whiteSpace=wrap;rounded=0;" vertex="1" parent="1">
          <mxGeometry x="140" y="550" width="32" height="20" as="geometry" />
        </mxCell>
        <mxCell id="bgPXSvZXS7v1T61vYOxo-89" value="" style="edgeStyle=orthogonalEdgeStyle;rounded=0;orthogonalLoop=1;jettySize=auto;html=1;fillColor=#d5e8d4;strokeColor=#82b366;" edge="1" parent="1" source="bgPXSvZXS7v1T61vYOxo-87" target="bgPXSvZXS7v1T61vYOxo-88">
          <mxGeometry relative="1" as="geometry" />
        </mxCell>
        <mxCell id="bgPXSvZXS7v1T61vYOxo-87" value="数据组装逻辑" style="rounded=0;whiteSpace=wrap;html=1;" vertex="1" parent="1">
          <mxGeometry x="366" y="380" width="91" height="30" as="geometry" />
        </mxCell>
        <mxCell id="bgPXSvZXS7v1T61vYOxo-88" value="个性化业务逻辑" style="rounded=0;whiteSpace=wrap;html=1;" vertex="1" parent="1">
          <mxGeometry x="366" y="300" width="91" height="30" as="geometry" />
        </mxCell>
        <mxCell id="bgPXSvZXS7v1T61vYOxo-90" value="是" style="text;html=1;strokeColor=none;fillColor=none;align=center;verticalAlign=middle;whiteSpace=wrap;rounded=0;" vertex="1" parent="1">
          <mxGeometry x="214.5" y="460" width="28" height="20" as="geometry" />
        </mxCell>
      </root>
    </mxGraphModel>
  </diagram>
</mxfile>
